<svg width="72" height="72" viewBox="0 0 72 72" fill="none" xmlns="http://www.w3.org/2000/svg">
<g id="Group 22">
<circle id="Oval Copy" cx="36" cy="36" r="36" fill="url(#paint0_linear_1_1670)"/>
<path id="Combined Shape" fill-rule="evenodd" clip-rule="evenodd" d="M47.7249 19.092V26.6624C52.9559 26.9483 57.1181 31.0269 57.1181 36C57.1181 40.9731 52.9558 45.0517 47.7248 45.3376V52.908C47.7248 54.6128 46.3377 55.9999 44.6328 55.9999H27.0986C25.3938 55.9999 24.0067 54.6129 24.0067 52.908V45.6673C24.0067 45.343 24.2695 45.0802 24.5938 45.0802C24.9181 45.0802 25.1809 45.343 25.1809 45.6673V49.1898H46.5507V45.3378C45.5588 45.2841 44.5902 45.0943 43.6612 44.7704L39.2781 47.1612C38.812 47.4153 38.2649 46.9412 38.4451 46.4452L39.7527 42.8493H33.0477C32.8938 42.8493 32.7413 42.7866 32.6326 42.6773L27.9359 37.9807C27.8271 37.8715 27.7641 37.7201 27.7641 37.5656V24.728C27.7641 24.4038 28.0269 24.1409 28.3512 24.1409H43.3805C43.7048 24.1409 43.9676 24.4038 43.9676 24.728V27.1298C44.7867 26.8719 45.6531 26.7115 46.5508 26.6624V22.184H25.1809V42.8884C25.1809 43.2127 24.9181 43.4755 24.5938 43.4755C24.2695 43.4755 24.0067 43.2127 24.0067 42.8884V19.092C24.0067 17.3871 25.3938 16 27.0987 16H44.633C46.3378 16 47.7249 17.3871 47.7249 19.092ZM44.633 54.8259C45.6905 54.8259 46.5508 53.9655 46.5508 52.908V50.364H25.1809V52.908C25.1809 53.9655 26.0412 54.8259 27.0987 54.8259H44.633ZM25.1809 21.0098V19.092C25.1809 18.0345 26.0411 17.1741 27.0987 17.1741H44.6329C45.6904 17.1741 46.5507 18.0345 46.5507 19.092V21.0098H25.1809ZM29.7685 38.1527L32.4608 40.8449V38.1527H29.7685ZM33.6349 41.6752V37.5655C33.6349 37.2413 33.3721 36.9784 33.0478 36.9784H28.9382V25.3151H42.7934V27.5796C42.1887 27.8548 41.6182 28.1859 41.0888 28.5651C41.0227 28.5392 40.9509 28.5245 40.8756 28.5245H37.7445C37.4202 28.5245 37.1574 28.7874 37.1574 29.1116C37.1574 29.4359 37.4202 29.6987 37.7445 29.6987H39.7683C39.195 30.2873 38.7009 30.9447 38.3014 31.6557H31.4824C31.1581 31.6557 30.8952 31.9186 30.8952 32.2428C30.8952 32.567 31.1581 32.8299 31.4824 32.8299H37.7481C37.3662 33.8204 37.1575 34.8878 37.1575 36.0002C37.1575 38.0834 37.8754 40.0544 39.2023 41.6753H33.6349V41.6752ZM43.8202 43.579C44.8747 43.9778 45.9909 44.18 47.1378 44.18C51.9936 44.18 55.9441 40.5105 55.9441 35.9999C55.9441 31.4894 51.9935 27.8198 47.1378 27.8198C42.2821 27.8198 38.3316 31.4894 38.3316 35.9999C38.3316 38.2172 39.2719 40.2933 40.9793 41.8456C41.1556 42.0059 41.2176 42.2567 41.1362 42.4806L40.0795 45.3865L43.3314 43.6127C43.4817 43.5308 43.6602 43.5184 43.8202 43.579ZM34.6134 18.5049H37.1183C37.4426 18.5049 37.7054 18.7677 37.7054 19.092C37.7054 19.4162 37.4426 19.6791 37.1183 19.6791H34.6134C34.2891 19.6791 34.0263 19.4162 34.0263 19.092C34.0263 18.7678 34.2891 18.5049 34.6134 18.5049ZM37.1183 51.0685H34.6134C34.2891 51.0685 34.0263 51.3314 34.0263 51.6556V53.5343C34.0263 53.8585 34.2891 54.1214 34.6134 54.1214H37.1183C37.4426 54.1214 37.7054 53.8585 37.7054 53.5343V51.6556C37.7054 51.3313 37.4426 51.0685 37.1183 51.0685ZM36.5312 52.9472H35.2005V52.2427H36.5312V52.9472ZM35.2396 28.5245H31.4823C31.158 28.5245 30.8952 28.7873 30.8952 29.1116C30.8952 29.4358 31.158 29.6987 31.4823 29.6987H35.2396C35.5639 29.6987 35.8267 29.4358 35.8267 29.1116C35.8267 28.7873 35.5639 28.5245 35.2396 28.5245ZM31.4823 34.7867H35.8659C36.1902 34.7867 36.4529 35.0495 36.453 35.3738C36.453 35.698 36.1902 35.9609 35.8659 35.9609H31.4823C31.158 35.9609 30.8952 35.698 30.8952 35.3738C30.8952 35.0496 31.158 34.7867 31.4823 34.7867ZM50.2299 34.1213C50.2299 34.4455 49.967 34.7084 49.6427 34.7084C49.3184 34.7084 49.0556 34.4455 49.0556 34.1213V33.4951C49.0556 32.783 48.4762 32.2035 47.764 32.2035H46.8247C45.9399 32.2035 45.22 32.9234 45.22 33.8082C45.22 34.693 45.9399 35.4129 46.8247 35.4129H47.451C48.9833 35.4129 50.2299 36.6595 50.2299 38.1918C50.2299 39.6316 49.1291 40.819 47.7249 40.957V42.2622C47.7249 42.5864 47.4621 42.8493 47.1378 42.8493C46.8135 42.8493 46.5507 42.5864 46.5507 42.2622V40.9706H46.5116C45.152 40.9706 44.0458 39.8645 44.0458 38.5048C44.0458 38.1806 44.3086 37.9177 44.6329 37.9177C44.9572 37.9177 45.22 38.1806 45.22 38.5048C45.22 39.217 45.7994 39.7964 46.5116 39.7964H47.4509C48.3357 39.7964 49.0556 39.0766 49.0556 38.1917C49.0556 37.3069 48.3357 36.587 47.4509 36.587H46.8246C45.2924 36.587 44.0458 35.3405 44.0458 33.8082C44.0458 32.3684 45.1466 31.181 46.5507 31.043V29.7377C46.5507 29.4135 46.8135 29.1506 47.1378 29.1506C47.4621 29.1506 47.7249 29.4135 47.7249 29.7377V31.0293H47.7641C49.1237 31.0293 50.2299 32.1355 50.2299 33.4951V34.1213Z" fill="white"/>
</g>
<defs>
<linearGradient id="paint0_linear_1_1670" x1="-35.8489" y1="35.8489" x2="35.8489" y2="107.547" gradientUnits="userSpaceOnUse">
<stop stop-color="#33D3C9"/>
<stop offset="1" stop-color="#2AB6D9"/>
</linearGradient>
</defs>
</svg>
