<svg width="137" height="28" viewBox="0 0 137 28" fill="none" xmlns="http://www.w3.org/2000/svg">
<g id="Group 9">
<path id="Lazybank" d="M38.4023 18.8359H45.5625V22H34.2891V4.9375H38.4023V18.8359ZM54.2578 22C54.1172 21.7422 53.9922 21.3633 53.8828 20.8633C53.1562 21.7773 52.1406 22.2344 50.8359 22.2344C49.6406 22.2344 48.625 21.875 47.7891 21.1562C46.9531 20.4297 46.5352 19.5195 46.5352 18.4258C46.5352 17.0508 47.043 16.0117 48.0586 15.3086C49.0742 14.6055 50.5508 14.2539 52.4883 14.2539H53.707V13.5859C53.707 12.4219 53.2031 11.8398 52.1953 11.8398C51.2578 11.8398 50.7891 12.3008 50.7891 13.2227H46.8398C46.8398 11.9961 47.3594 11 48.3984 10.2344C49.4453 9.46875 50.7773 9.08594 52.3945 9.08594C54.0117 9.08594 55.2891 9.48047 56.2266 10.2695C57.1641 11.0586 57.6445 12.1406 57.668 13.5156V19.1289C57.6836 20.293 57.8633 21.1836 58.207 21.8008V22H54.2578ZM51.7852 19.4219C52.2773 19.4219 52.6836 19.3164 53.0039 19.1055C53.332 18.8945 53.5664 18.6562 53.707 18.3906V16.3633H52.5586C51.1836 16.3633 50.4961 16.9805 50.4961 18.2148C50.4961 18.5742 50.6172 18.8672 50.8594 19.0938C51.1016 19.3125 51.4102 19.4219 51.7852 19.4219ZM64.5234 18.9531H70.3008V22H59.5312V19.7969L65.1562 12.3672H59.7773V9.32031H70.1719V11.4531L64.5234 18.9531ZM77.2852 16.4688L79.3945 9.32031H83.625L78.457 24.1211L78.2344 24.6602C77.5 26.3008 76.2031 27.1211 74.3438 27.1211C73.8281 27.1211 73.2852 27.043 72.7148 26.8867V24.0625H73.2305C73.7852 24.0625 74.207 23.9805 74.4961 23.8164C74.793 23.6602 75.0117 23.375 75.1523 22.9609L75.4688 22.1172L71.0625 9.32031H75.2812L77.2852 16.4688ZM96.4336 15.7656C96.4336 17.8438 96.0039 19.4414 95.1445 20.5586C94.2852 21.6758 93.0742 22.2344 91.5117 22.2344C90.2227 22.2344 89.1836 21.7227 88.3945 20.6992L88.2305 22H84.6914V4H88.6406V10.3398C89.375 9.50391 90.3242 9.08594 91.4883 9.08594C93.0664 9.08594 94.2852 9.65234 95.1445 10.7852C96.0039 11.918 96.4336 13.5117 96.4336 15.5664V15.7656ZM92.4727 15.5195C92.4727 14.3008 92.3086 13.4336 91.9805 12.918C91.6602 12.3945 91.1641 12.1328 90.4922 12.1328C89.6016 12.1328 88.9844 12.4727 88.6406 13.1523V18.1914C88.9766 18.8633 89.6016 19.1992 90.5156 19.1992C91.4453 19.1992 92.0352 18.7461 92.2852 17.8398C92.4102 17.3945 92.4727 16.6211 92.4727 15.5195ZM105.328 22C105.188 21.7422 105.062 21.3633 104.953 20.8633C104.227 21.7773 103.211 22.2344 101.906 22.2344C100.711 22.2344 99.6953 21.875 98.8594 21.1562C98.0234 20.4297 97.6055 19.5195 97.6055 18.4258C97.6055 17.0508 98.1133 16.0117 99.1289 15.3086C100.145 14.6055 101.621 14.2539 103.559 14.2539H104.777V13.5859C104.777 12.4219 104.273 11.8398 103.266 11.8398C102.328 11.8398 101.859 12.3008 101.859 13.2227H97.9102C97.9102 11.9961 98.4297 11 99.4688 10.2344C100.516 9.46875 101.848 9.08594 103.465 9.08594C105.082 9.08594 106.359 9.48047 107.297 10.2695C108.234 11.0586 108.715 12.1406 108.738 13.5156V19.1289C108.754 20.293 108.934 21.1836 109.277 21.8008V22H105.328ZM102.855 19.4219C103.348 19.4219 103.754 19.3164 104.074 19.1055C104.402 18.8945 104.637 18.6562 104.777 18.3906V16.3633H103.629C102.254 16.3633 101.566 16.9805 101.566 18.2148C101.566 18.5742 101.688 18.8672 101.93 19.0938C102.172 19.3125 102.48 19.4219 102.855 19.4219ZM114.562 9.32031L114.691 10.8086C115.566 9.66016 116.773 9.08594 118.312 9.08594C119.633 9.08594 120.617 9.48047 121.266 10.2695C121.922 11.0586 122.262 12.2461 122.285 13.832V22H118.324V13.9961C118.324 13.3555 118.195 12.8867 117.938 12.5898C117.68 12.2852 117.211 12.1328 116.531 12.1328C115.758 12.1328 115.184 12.4375 114.809 13.0469V22H110.859V9.32031H114.562ZM129.574 17.2773L128.461 18.3906V22H124.512V3.98828H128.461V13.5508L128.859 13.0234L131.836 9.32031H136.57L132.129 14.5352L136.863 22H132.34L129.574 17.2773Z" fill="#3E484E"/>
<g id="Group 8">
<path id="Path 5" fill-rule="evenodd" clip-rule="evenodd" d="M10.8025 4L0 23.704H5.98608L16.7885 4H10.8025Z" fill="url(#paint0_linear_1_2327)"/>
<path id="Path 5 Copy" opacity="0.5" fill-rule="evenodd" clip-rule="evenodd" d="M18.1709 4L7.36841 23.704H13.3545L24.157 4H18.1709Z" fill="url(#paint1_linear_1_2327)"/>
<path id="Path 5 Copy 2" opacity="0.15" fill-rule="evenodd" clip-rule="evenodd" d="M25.5393 4L14.7368 23.704H20.7229L31.5254 4H25.5393Z" fill="url(#paint2_linear_1_2327)"/>
</g>
</g>
<defs>
<linearGradient id="paint0_linear_1_2327" x1="5.13267" y1="-3.42211" x2="-10.1946" y2="13.9128" gradientUnits="userSpaceOnUse">
<stop stop-color="#33D3C9"/>
<stop offset="1" stop-color="#2AB6D9"/>
</linearGradient>
<linearGradient id="paint1_linear_1_2327" x1="12.5011" y1="-3.42211" x2="-2.82619" y2="13.9128" gradientUnits="userSpaceOnUse">
<stop stop-color="#33D3C9"/>
<stop offset="1" stop-color="#2AB6D9"/>
</linearGradient>
<linearGradient id="paint2_linear_1_2327" x1="19.8695" y1="-3.42211" x2="4.54222" y2="13.9128" gradientUnits="userSpaceOnUse">
<stop stop-color="#33D3C9"/>
<stop offset="1" stop-color="#2AB6D9"/>
</linearGradient>
</defs>
</svg>
